<svg width="28" height="28" viewBox="0 0 26 26" fill="none" xmlns="http://www.w3.org/2000/svg">
<path d="M16.2493 16.2498C17.8743 16.2498 18.9577 17.2687 18.9577 18.4165H22.2077V2.1665H18.9577C18.9577 3.24984 17.8743 4.33317 16.2493 4.33317C14.6243 4.33317 13.541 3.24984 13.541 2.1665H10.291V9.74984" stroke="#000000" stroke-width="1.5" stroke-linecap="round" stroke-linejoin="round"/>
<path d="M16.2507 23.8335H13.0007C13.0007 22.6857 11.9173 21.6668 10.2923 21.6668C8.66732 21.6668 7.58398 22.6857 7.58398 23.8335H4.33398V7.5835H7.58398C7.58398 8.66683 8.66732 9.75016 10.2923 9.75016C11.9173 9.75016 13.0007 8.66683 13.0007 7.5835H16.2507V23.8335Z" stroke="#000000" stroke-width="1.5" stroke-linecap="round" stroke-linejoin="round"/>
<path d="M7.58333 14.0832C8.18164 14.0832 8.66667 13.5981 8.66667 12.9998C8.66667 12.4015 8.18164 11.9165 7.58333 11.9165C6.98502 11.9165 6.5 12.4015 6.5 12.9998C6.5 13.5981 6.98502 14.0832 7.58333 14.0832Z" fill="#000000"/>
<path d="M10.2923 14.0832C10.8906 14.0832 11.3757 13.5981 11.3757 12.9998C11.3757 12.4015 10.8906 11.9165 10.2923 11.9165C9.69401 11.9165 9.20898 12.4015 9.20898 12.9998C9.20898 13.5981 9.69401 14.0832 10.2923 14.0832Z" fill="#000000"/>
<path d="M12.9993 14.0832C13.5977 14.0832 14.0827 13.5981 14.0827 12.9998C14.0827 12.4015 13.5977 11.9165 12.9993 11.9165C12.401 11.9165 11.916 12.4015 11.916 12.9998C11.916 13.5981 12.401 14.0832 12.9993 14.0832Z" fill="#000000"/>
</svg>
