<svg width="28" height="28" viewBox="0 0 26 26" fill="none" xmlns="http://www.w3.org/2000/svg">
<path d="M2.16602 2.1665H23.8327" stroke="#727272" stroke-width="1.5" stroke-linecap="round" stroke-linejoin="round"/>
<path d="M20.584 2.1665H5.41732C4.81901 2.1665 4.33398 2.65153 4.33398 3.24984V22.7498C4.33398 23.3481 4.81901 23.8332 5.41732 23.8332H20.584C21.1823 23.8332 21.6673 23.3481 21.6673 22.7498V3.24984C21.6673 2.65153 21.1823 2.1665 20.584 2.1665Z" stroke="#727272" stroke-width="1.5" stroke-linejoin="round"/>
<path d="M10.834 17.3335H15.1673V23.8335H10.834V17.3335Z" stroke="#727272" stroke-width="1.5" stroke-linecap="round" stroke-linejoin="round"/>
<path d="M8.125 6.5H9.20833" stroke="#727272" stroke-width="1.5" stroke-linecap="round"/>
<path d="M8.125 9.75H9.20833" stroke="#727272" stroke-width="1.5" stroke-linecap="round"/>
<path d="M12.459 6.5H13.5423" stroke="#727272" stroke-width="1.5" stroke-linecap="round"/>
<path d="M12.459 9.75H13.5423" stroke="#727272" stroke-width="1.5" stroke-linecap="round"/>
<path d="M16.791 6.5H17.8743" stroke="#727272" stroke-width="1.5" stroke-linecap="round"/>
<path d="M16.791 9.75H17.8743" stroke="#727272" stroke-width="1.5" stroke-linecap="round"/>
<path d="M2.16602 23.8335H23.8327" stroke="#727272" stroke-width="1.5" stroke-linecap="round" stroke-linejoin="round"/>
<path d="M15.1667 17.3335H16.2501C16.5492 17.3335 16.797 17.0887 16.74 16.795C16.4406 15.2564 14.8801 14.0835 13.0001 14.0835C11.12 14.0835 9.55957 15.2564 9.26019 16.795C9.2031 17.0887 9.45091 17.3335 9.75008 17.3335H10.8334" stroke="#727272" stroke-width="1.5" stroke-linecap="round" stroke-linejoin="round"/>
</svg>
