<?xml version="1.0" encoding="utf-8"?>
<!-- Generator: Adobe Illustrator 29.6.1, SVG Export Plug-In . SVG Version: 9.03 Build 0)  -->
<svg version="1.0" id="Capa_1" xmlns="http://www.w3.org/2000/svg" xmlns:xlink="http://www.w3.org/1999/xlink" x="0px" y="0px"
	 viewBox="0 0 100 100" style="enable-background:new 0 0 100 100;" xml:space="preserve">
<path d="M10.4,19.7l1.6,0.8h0.2c0.2,0,0.6,0.2,1,0.3c0.4,0.2,0.8,0.3,1.2,0.4l0.2,0.2l0.2,0.1c0.4,0.2,0.9,0.4,1.3,0.6
	c0.4,0.2,0.9,0.3,1.2,0.5l1.1,0.4c0.8,0.4,2,0.8,2.8,0.8H22c0.3,0,0.7,0.1,1.1,0.2c0.5,0.1,1,0.2,1.4,0.2c0.3,0,0.9,0.1,1.3,0.2
	c0.2,0.1,0.4,0.1,0.6,0.1c0.6,0.4,1.3,0.4,1.7,0.4c0.7,0,1.4-0.6,1.5-1.3c0.1-0.1,0.4-0.2,0.7-0.2h2.5c0.4,0,1.1,0,1.3,0.1l1.4,1.4
	c0.7,0.7,1.4,1.4,1.7,2l0.4,0.5c0.2,0.4,0.5,0.7,0.7,1.1c0.2,0.3,0.4,0.6,0.6,0.8v0.4l0.1,0.2c0.4,0.9,1.3,1.7,2.1,2.1
	c0.8,0.4,1.4,0.7,1.9,0.8c0.3,0.2,0.7,0.3,1.3,0c0.4-0.2,0.8-0.5,1.3-0.9c0.6-0.6,0.9-0.8,1-0.9h1.7c0.5,0,1,0.2,1.6,0.5
	c0.2,0.3,0.4,0.7,0.7,1c0.3,0.3,0.5,0.7,0.7,1l0.4,0.5c0,0.1,0.1,0.2,0.1,0.3c0.3,0.7,0.8,1.7,1.6,2.1l0.2,0.1H54
	c0.3,0.2,0.6,0.8,0.8,1.3c0,0.1,0.1,0.2,0.1,0.3v0.4l0.1,0.2c0.2,0.3,0.3,0.8,0.5,1.2c0.2,0.5,0.4,0.9,0.6,1.3
	c0.5,0.9,1.4,1.4,2.1,1.8c0.7,0.4,1.7,0.7,2.5,0.8l0.9,0.9l0.2,0.1c0.4,0.2,0.6,0.4,0.6,0.4c-0.1,0.1-0.2,0.3-0.3,0.4
	c-0.6,0.3-1,1.1-1.1,2c-0.3,0.7-0.2,1.4-0.1,2c0,0.2,0.1,0.5,0.1,0.7v2.4L60.7,54l0,2.7l0.4,1.9c0,0.7,0.5,1.5,0.9,2.3
	c0.1,0.2,0.2,0.4,0.3,0.5l0.5,0.9l0.2,0.1c0.3,0.2,0.6,0.8,0.9,1.4c0,0.1,0.1,0.2,0.1,0.3v0.7L64,65c0.2,0.4,0.5,0.8,0.8,1.3
	c0.3,0.4,0.5,0.9,0.7,1.2l0.4,0.5c0.5,0.9,1.8,1.7,2.8,1.7h0.4c0.6,0,1.5,0.3,1.6,0.5l0.2,0.2h0.2c0.1,0.1,0.4,0.3,0.4,0.4
	c0,0.4,0.4,0.9,0.9,1.1c0.5,0.2,1.1,0.1,1.5-0.2c0.1-0.1,0.4-0.1,0.6-0.2c0.4-0.1,0.7-0.2,1-0.4c0.2,0,0.4-0.1,0.7-0.2
	c0.2-0.1,0.4-0.1,0.5-0.1c0.5,0,1.4,0,2-0.6c0.1-0.1,0.4-0.3,0.6-0.4c0.3-0.2,0.5-0.3,0.7-0.5c0.3-0.2,0.4-0.1,0.5-0.1
	c0.6,0.6,1.2,0.6,2,0.6c1.2,0,1.8-0.7,1.8-1.5c0-0.1,0.2-0.6,0.4-0.9c0.9-0.5,1.4-1.4,1.4-2c0-0.3,0.1-0.5,0.2-0.7
	c0.1-0.2,0.2-0.5,0.2-0.8v-2.8c0.1-0.2,0.5-0.6,1-0.8l1-0.3l0.1,0c0.3-0.2,0.8-0.3,1.2-0.5c0.5-0.2,0.9-0.4,1.3-0.6l0.7-0.4
	c0.6-0.3,1.5-0.3,2.2-0.3h2.2c0.1,0,0.2,0,0.3,0v1.4c0,0.6-0.3,1.5-0.5,1.6c-0.6,0.6-0.9,1.9-0.9,2.7v2.9c0,0.3,0,0.5,0,0.6
	c-0.2-0.2-0.6-0.3-1-0.3h-0.8v0.6c0,0.1-0.1,0.1-0.2,0.2c-0.2,0.2-0.5,0.5-0.7,0.8c-0.3,0.2-0.7,0.4-1,0.7c-0.3,0.2-0.6,0.4-0.8,0.6
	h-0.3l-0.2,0.1c-0.6,0.3-1.5,0.3-2.2,0.3h-0.4c-1.2,0-1.8,0.7-1.8,1.5c0,0-0.1,0.3-0.3,0.3h-0.2L85,72.4c-0.2,0.1-0.3,0.1-0.4,0.2
	c-0.4,0.2-0.8,0.3-0.9,0.8c-0.1,0.5,0.2,0.8,0.3,0.9l1.1,1.1c0.3,0.3,0.6,1,0.9,1.6c0.1,0.2,0.1,0.3,0,0.3c0,0,0,0-0.1,0H85
	c-0.5,0-1,0.1-1.4,0.3c-0.1,0-0.3,0.1-0.4,0.1c-0.5,0-1,0.2-1.1,1.1L81.9,79c-0.6,0.6-0.6,1.5-0.6,2.3c0,0,0,0,0,0.1l-0.2-0.1h-0.5
	c-0.4,0-1.3-0.5-1.5-1l-0.5-0.6c-0.5-0.5-1.6-1.2-2.4-1.6c-0.4-0.2-0.9-0.4-1.3-0.6c-0.4-0.2-0.8-0.3-1.1-0.5l-0.3-0.3l-0.2-0.1
	c-1.1-0.5-2,0-2.8,0.4l-1.2,1.1c-0.1,0.1-0.3,0.2-0.5,0.3c-0.5,0.3-1.2,0.7-1.6,0.7h-0.5l-0.2,0.1c-0.3,0.1-0.8,0.1-1.3,0
	c-0.3,0-0.6-0.1-0.9-0.1h-0.6c-0.3-0.2-0.8-0.3-1.2-0.5c-0.4-0.2-0.8-0.3-1.1-0.5l-0.3-0.3l-0.2-0.1c-0.4-0.2-0.8-0.4-1.3-0.6
	c-0.4-0.2-0.9-0.3-1.2-0.5c-0.4-0.2-0.9-0.4-1.3-0.6c-0.4-0.2-0.8-0.3-1.1-0.5l-0.3-0.3l-0.2-0.1c-0.4-0.2-0.9-0.4-1.3-0.6
	c-0.4-0.2-0.9-0.3-1.3-0.5l-1.8-0.7c-0.4-0.2-0.9-0.4-1.3-0.6c-0.4-0.2-0.9-0.3-1.2-0.5l-2.7-0.8l-0.2,0c-0.4,0-1.1-0.4-1.6-0.7
	c-0.2-0.1-0.4-0.2-0.6-0.3c-0.3-0.2-0.6-0.4-1-0.7c-0.3-0.3-0.7-0.5-1.1-0.7l-0.3-0.3l-0.2-0.1c-0.3-0.2-0.6-0.4-1-0.7
	c-0.3-0.3-0.7-0.5-1.1-0.7l-0.3-0.3l-0.2-0.1c-0.6-0.3-1.2-0.9-1.5-1.5l-0.4-0.7c-0.3-0.5-0.2-0.9-0.1-0.9c0,0,1-1,0.7-1.8
	c0-0.1-0.1-0.2-0.2-0.2c0-0.1,0-0.1,0-0.1c0,0,0,0,0,0c0.5-0.6,0.5-1.5,0.5-1.9c0-0.8,0-1.8-0.7-2.1c0-0.1,0-0.3,0-0.4
	c0-0.5-0.3-1.1-0.8-2.1l-1.5-1.9c-0.2-0.4-0.6-0.8-1-1.2c-0.3-0.3-0.6-0.6-0.8-1L32,49.8l-2.2-2.2c-0.4-0.6-1-1.2-1.5-1.6
	c-0.2-0.1-0.3-0.2-0.4-0.3l-0.2-0.1c-0.6-0.3-1.3-0.7-1.6-0.9l-0.9-0.9c0-0.4,0.1-0.6,0.1-0.6l0.1-0.2c0.5-1,0.5-2.1-0.1-2.7
	l-0.9-0.9c-0.2-0.4-0.5-0.7-0.9-0.9c-0.1-0.1-0.3-0.2-0.4-0.3c-0.1-0.1-0.3-0.3-0.5-0.4c-0.1-0.1-0.3-0.2-0.3-0.3v-0.2L22.2,37
	C22,36.9,22,36.8,22,36.5c0-0.8-0.7-1.5-1.4-1.5c0,0,0,0,0,0c0,0-0.2-0.1-0.2-0.1c-0.2-0.1-0.3-0.2-0.5-0.2
	c-0.1-0.1-0.2-0.1-0.3-0.2c-0.3-0.2-0.7-0.5-0.9-0.9l-1.1-1.8l-0.1-0.1c-0.1-0.1-0.2-0.3-0.3-0.4c-0.2-0.4-0.6-1-1-1.3l-0.3-1.2
	l-0.1-0.2c-0.4-0.7-0.6-1.7-0.6-2.2v-0.7c0-1.1-1-2.4-1.3-2.7c-0.5-0.5-1.4-0.9-2-0.9c0,0,0,0,0,0c-0.2,0-0.7-0.3-0.9-0.5
	c-0.7-0.7-1.5-0.7-2.1,0c-0.6,0.6-0.6,1.5-0.6,2.3c0,0.2,0.1,0.5,0.2,0.9c0.1,0.4,0.2,0.9,0.2,1.3c0,0.9,0.4,2.1,0.8,2.9l0.5,0.6
	c0.3,0.3,1,1.3,1.3,2l0.1,0.2c0.3,0.3,0.9,1.2,0.9,1.6v0.3l0.5,0.5c0.1,0.1,0.1,0.2,0.2,0.4c0.3,0.6,0.8,1.4,0.8,2.1v0.3l0.5,0.5
	c0.2,0.4,0.5,0.7,0.7,1.1c0.3,0.3,0.5,0.7,0.7,1l0.9,0.9c0.2,0.2,0.5,1,0.5,1.6c0,0.9,0.4,2.1,0.8,2.9l0.4,0.7
	c0.2,0.3,0.3,0.8,0.5,1.2c0.2,0.4,0.3,0.8,0.5,1.2v0.4l0.1,0.2c0.3,0.6,0.9,1.6,1.4,2.1c-0.1-0.1-0.2-0.1-0.2-0.2
	c-0.7-0.7-1.4-1.4-2.2-1.8c-0.2-0.2-0.4-0.5-0.6-0.7c-0.3-0.3-0.5-0.7-0.7-0.9c-0.2-0.5-0.2-1.1-0.2-1.7c0-0.9-0.4-1.7-0.8-2.5
	l-0.5-0.6c-0.1-0.1-0.2-0.2-0.3-0.4c-0.4-0.5-0.9-1.1-1.6-1.5l-0.3-0.3l-0.2-0.1c-0.3-0.1-0.6-0.5-0.9-0.8c-0.3-0.3-0.6-0.6-1-0.9
	l-0.3-1L9.5,36c0.6-0.3,1.3-1.1,1.3-1.7c0-0.7,0-1.7-0.4-2.5c-0.2-0.3-1-1.8-2-2.4l-0.6-0.6c-0.1-0.1-0.3-0.4-0.5-0.7
	c-0.3-0.4-0.7-0.9-1.1-1.3C6,26,5.7,25,5.4,24.3V24l-0.1-0.2c-0.2-0.3-0.3-0.8-0.5-1.2c-0.2-0.5-0.4-0.9-0.5-1.3l-0.7-2.1l0-0.1
	c-0.1-0.1-0.1-0.3-0.1-0.4h1.3l1.9-0.4c0.6,0,1.5,0,2,0.2C9,19,9.7,19.4,10.4,19.7L10.4,19.7z M11.1,18.4c-0.6-0.3-1.3-0.7-1.6-0.9
	l-0.2-0.1c-0.9-0.4-2.1-0.4-2.9-0.4l-1.9,0.4H2.8c-0.3,0-0.7,0.2-0.8,0.5c-0.3,0.6-0.2,1.4,0.1,2l0.7,2.1l0,0.1
	c0.2,0.3,0.3,0.8,0.5,1.2c0.2,0.4,0.3,0.8,0.5,1.2v0.4l0.1,0.2c0.4,0.7,0.6,1.7,0.6,2.2v0.3l0.2,0.2c0.4,0.4,0.8,0.9,1.1,1.4
	c0.3,0.4,0.5,0.6,0.7,0.8l0.7,0.7l0.2,0.1C8,30.8,8.6,31.7,9,32.4c0.2,0.4,0.3,1,0.3,1.8c-0.1,0.1-0.3,0.3-0.4,0.4
	c-0.5,0-0.9,0.3-1.1,0.8c-0.2,0.4-0.1,0.9,0.3,1.3l1.3,1.3l0.4,1.2l0.3,0.1c0.3,0.1,0.6,0.5,0.9,0.8c0.4,0.4,0.7,0.7,1.2,1l0.3,0.3
	l0.2,0.1c0.4,0.2,0.9,0.8,1.2,1.2c0.2,0.2,0.3,0.4,0.4,0.5l0.3,0.3c0.3,0.6,0.6,1.2,0.6,1.7c0,0.8,0,1.6,0.4,2.5l0.1,0.2
	c0.1,0.1,0.4,0.5,0.7,0.8c0.3,0.4,0.6,0.8,0.8,1l0.2,0.1c0.6,0.3,1.3,1,2,1.7l0.2,0.1c0.4,0.2,0.7,0.9,0.7,1.1c0,0.7,0.4,1.3,1,1.5
	c0.4,0.2,0.8,0.1,1.2-0.1c0.3-0.1,0.5-0.3,0.7-0.6c0.3-0.5,0.3-1.2,0.1-1.8c-0.1-0.9-0.6-1.8-1.4-2.2c-0.3-0.3-0.8-1.1-1.2-1.8v-0.4
	l-0.1-0.2c-0.2-0.3-0.3-0.8-0.5-1.2c-0.2-0.5-0.4-0.9-0.6-1.3L19,44.1c-0.4-0.7-0.6-1.7-0.6-2.2c0-0.8-0.4-2.1-0.9-2.7l-0.6-0.6
	c-0.2-0.4-0.5-0.7-0.7-1.1c-0.3-0.3-0.5-0.7-0.7-1l-0.3-0.4c-0.1-0.9-0.6-1.8-0.9-2.5c-0.1-0.2-0.2-0.3-0.2-0.4l-0.3-0.4
	c-0.1-0.9-0.8-1.9-1.2-2.3c-0.4-0.7-1.1-1.8-1.5-2.3L10.7,28c-0.3-0.7-0.6-1.6-0.6-2.1c0-0.5-0.1-1.1-0.2-1.6
	c-0.1-0.2-0.1-0.5-0.1-0.6c0-0.4,0-1,0.2-1.3c0.5,0.5,1.4,0.9,2,0.9c0,0,0,0,0,0c0.2,0,0.7,0.3,0.9,0.5c0.3,0.3,0.9,1.2,0.9,1.6v0.7
	c0,0.8,0.4,2,0.8,2.8l0.4,1.7l0.3,0.2c0.3,0.1,0.5,0.6,0.7,0.9c0.1,0.2,0.3,0.5,0.4,0.7l1,1.7c0.3,0.7,0.9,1.1,1.3,1.4
	c0.1,0.1,0.2,0.2,0.3,0.3l0.2,0.2h0.3c0,0,0.2,0.1,0.2,0.1c0.2,0.1,0.5,0.3,0.9,0.2c0,0.4,0,0.9,0.4,1.4c0.2,0.4,0.5,0.7,0.9,1
	c0.1,0.1,0.3,0.2,0.4,0.3c0.1,0.1,0.3,0.3,0.5,0.4c0.1,0.1,0.3,0.2,0.3,0.3V40l1.3,1.3c0.1,0.1,0.1,0.4-0.1,0.9
	c-0.5,0.6-0.5,1.4-0.5,1.9v0.3l1.3,1.3c0.4,0.4,1.1,0.8,1.9,1.2c0.1,0.1,0.2,0.2,0.4,0.3c0.4,0.3,1,0.8,1.2,1.2l2.3,2.3l0.6,0.9
	c0.2,0.5,0.6,0.9,1,1.3c0.3,0.3,0.6,0.6,0.8,0.9l1.5,1.9c0.2,0.5,0.6,1.2,0.6,1.4c0,0.4,0,1.5,0.7,1.8c0,0.2,0,0.6,0,0.8
	c0,0.7-0.1,0.9-0.1,0.9c-0.6,0.6-0.4,1.2-0.3,1.5c0,0,0,0.1,0,0.1v0.4c0,0.1-0.1,0.1-0.1,0.2c-0.6,0.6-0.7,1.6-0.1,2.7l0.4,0.7
	c0.4,0.8,1.2,1.6,2,2.1l0.3,0.3l0.2,0.1c0.3,0.2,0.6,0.4,1,0.7c0.3,0.3,0.7,0.5,1.1,0.7l0.3,0.3l0.2,0.1c0.3,0.2,0.6,0.4,1,0.7
	c0.4,0.3,0.8,0.6,1.2,0.8c0.2,0.1,0.3,0.2,0.5,0.3c0.7,0.4,1.5,0.8,2.2,0.9l2.4,0.7c0.4,0.2,0.8,0.4,1.3,0.5
	c0.4,0.2,0.9,0.3,1.3,0.5l1.8,0.7c0.4,0.2,0.8,0.4,1.3,0.6c0.4,0.2,0.8,0.3,1.1,0.5l0.3,0.3l0.2,0.1c0.4,0.2,0.9,0.4,1.3,0.6
	c0.4,0.2,0.9,0.3,1.2,0.5c0.4,0.2,0.9,0.4,1.3,0.6c0.4,0.2,0.8,0.3,1.1,0.5l0.3,0.3l0.2,0.1c0.4,0.2,0.9,0.4,1.3,0.6
	c0.4,0.2,0.9,0.3,1.2,0.5l0.2,0.1h0.9c0.2,0,0.4,0,0.7,0.1c0.6,0.1,1.4,0.2,2-0.1h0.2c0.7,0,1.6-0.5,2.3-0.9
	c0.2-0.1,0.4-0.2,0.5-0.3l1.2-1.1c0.6-0.3,1-0.4,1.3-0.3l0.3,0.3l0.2,0.1c0.4,0.2,0.9,0.4,1.3,0.6c0.4,0.2,0.9,0.3,1.2,0.5
	c0.7,0.3,1.7,1,2,1.3l0.3,0.3c0.5,0.9,1.8,1.7,2.8,1.7h0.2c0.3,0.1,0.5,0.1,0.7,0.1c0.3,0,0.5-0.1,0.7-0.2c0.2-0.2,0.7-0.5,0.7-1.4
	c0-0.3,0-0.6,0-0.9c0,0,0.1,0,0.1,0c0.6-0.2,0.6-0.8,0.6-1.2c0,0,0,0,0,0c0.1,0,0.3-0.1,0.4-0.1c0.3-0.1,0.7-0.2,1-0.2h1.1
	c0.6,0,1.1-0.3,1.4-0.7c0.3-0.5,0.3-1.2,0-1.8c-0.4-0.8-0.8-1.6-1.2-2l-0.6-0.6c0.9-0.2,1.5-1.1,1.5-1.7c0.1,0,0.2-0.1,0.3-0.1h0.4
	c0.7,0,1.8,0,2.7-0.4H91l0.2-0.1c0.4-0.2,0.8-0.5,1.2-0.8c0.3-0.3,0.7-0.5,1-0.7l0.2-0.1l0.1-0.2c0.1-0.2,0.3-0.4,0.5-0.6
	c0.1,0.2,0.3,0.4,0.5,0.5c0.4,0.2,1,0,1.4-0.4c0.5-0.5,0.6-1.5,0.6-2.3V64c0-0.6,0.3-1.5,0.5-1.6c0.6-0.6,0.9-1.9,0.9-2.7v-1.8
	c0-1.1-1.4-1.1-1.8-1.1H94c-0.8,0-2,0-2.9,0.4l-0.7,0.4c-0.3,0.2-0.8,0.3-1.2,0.5c-0.5,0.2-0.9,0.4-1.3,0.5l-1,0.3l-0.1,0
	c-0.6,0.3-1.9,1.2-1.9,2.1l0,2.9c0,0,0,0.1-0.1,0.2c-0.1,0.3-0.3,0.7-0.3,1.2c0,0.1-0.2,0.6-0.7,0.8l-0.2,0.1
	c-0.4,0.4-0.9,1.3-0.9,1.9c-0.1,0-0.2,0.1-0.3,0.1c-0.7,0-0.8,0-0.9-0.1c-0.8-0.8-1.6-0.5-2.3-0.1L79,68.1c-0.1,0.1-0.4,0.3-0.6,0.4
	c-0.3,0.2-0.6,0.4-0.8,0.6c-0.1,0.1-0.2,0.1-0.9,0.1c-0.3,0-0.6,0.1-1,0.2c-0.2,0.1-0.4,0.1-0.5,0.1l-0.3,0l-0.2,0.2
	c-0.1,0.1-0.4,0.1-0.6,0.2c-0.4,0.1-0.8,0.2-1.1,0.4c-0.2-0.6-0.8-1.3-1.4-1.5c-0.6-0.5-1.8-0.8-2.5-0.8h-0.4c-0.4,0-1.3-0.5-1.5-1
	l-0.4-0.5c-0.2-0.4-0.4-0.8-0.7-1.2c-0.2-0.4-0.4-0.7-0.6-1.1v-0.7l-0.1-0.2c-0.1-0.1-0.1-0.3-0.2-0.4c-0.3-0.7-0.7-1.5-1.3-1.9
	l-0.3-0.5c-0.1-0.2-0.2-0.4-0.3-0.6c-0.3-0.5-0.7-1.2-0.7-1.6l-0.4-1.9v-2.4l0.3-1.4l0-2.7c0-0.3,0-0.6-0.1-0.9
	c-0.1-0.5-0.1-1,0-1.3l0.1-0.2v-0.2c0-0.3,0.1-0.6,0.2-0.7l0.1,0l0.2-0.2c0.4-0.4,0.9-0.9,0.9-1.6c0-0.9-0.9-1.5-1.4-1.7l-1.2-1.2
	h-0.3c-0.5,0-1.5-0.3-2.2-0.6c-0.7-0.3-1.2-0.6-1.5-1.1c-0.2-0.3-0.3-0.8-0.5-1.2c-0.2-0.4-0.3-0.8-0.5-1.2v-0.4l-0.1-0.2
	c-0.1-0.1-0.1-0.3-0.2-0.4c-0.3-0.7-0.8-1.7-1.6-2.1L54.4,35h-0.3c-0.3-0.2-0.6-0.8-0.8-1.3c-0.1-0.2-0.1-0.3-0.2-0.5l-0.4-0.5
	c-0.2-0.4-0.5-0.7-0.7-1.1c-0.3-0.3-0.5-0.7-0.7-1l-0.1-0.2l-0.2-0.1c-0.8-0.4-1.6-0.8-2.5-0.8h-1.8c-0.6,0-1.1,0.5-2,1.3
	c-0.4,0.4-0.7,0.6-0.9,0.6l-0.1-0.1l-0.3,0c-0.2,0-1-0.4-1.5-0.6c-0.5-0.3-1.1-0.8-1.4-1.3V29l-0.1-0.2c-0.2-0.4-0.5-0.8-0.8-1.2
	c-0.3-0.3-0.5-0.7-0.7-1l-0.4-0.5c-0.4-0.8-1.2-1.5-1.9-2.3l-1.4-1.4c-0.6-0.6-1.5-0.6-2.3-0.6h-2.5c-1.1,0-2.2,0.6-2.2,1.4
	c-0.7,0-0.9-0.1-0.9-0.1L27,23l-0.3,0c-0.1,0-0.3-0.1-0.6-0.1c-0.5-0.1-1.1-0.2-1.6-0.2c-0.3,0-0.7-0.1-1.1-0.2
	c-0.5-0.1-1-0.2-1.4-0.2h-0.7c-0.5,0-1.5-0.3-2.2-0.6l-1.1-0.4c-0.4-0.2-0.8-0.4-1.3-0.5c-0.4-0.2-0.8-0.3-1.1-0.5l-0.5-0.5h-0.3
	c-0.2,0-0.6-0.2-1-0.3c-0.4-0.2-0.9-0.4-1.3-0.4L11.1,18.4L11.1,18.4z M20.9,50.9c0.4,0.2,0.7,0.6,0.7,1.1v0.2l0.1,0.2
	c0.1,0.2,0.1,0.3,0.1,0.4l-0.1,0C21.6,52.3,21.4,51.5,20.9,50.9L20.9,50.9z"/>
</svg>
