<svg width="28" height="28" viewBox="0 0 24 24" fill="none" xmlns="http://www.w3.org/2000/svg">
<path d="M8.6 3.47059V3H14.84L13.8 8.64706H19L13.3273 14.2941L8.6 19L9.54992 13.4122L8.496 12.8824H9.64L9.54992 13.4122L10.5501 13.9151L11.4859 14.2941L12.3001 14.6239L13.0955 12.7592L10.68 13.8235L10.9628 11.7761L11.1893 10.1364L6.52 12.4118L8.6 3.47059Z" fill="#FFC300"/>
<path d="M8.52819 11.7086L9.13225 12.0906L8.6 12.4118H8.08V11.9412L8.52819 11.7086Z" fill="#FFC300"/>
<path d="M8.6 3.47059V3M8.6 3.47059L13.28 9.11765L6.52 12.4118L8.6 3.47059ZM8.6 3H14.84L13.8 8.64706M8.6 3L13.8 8.64706M13.8 8.64706H19M13.8 8.64706L13.5437 11.7086M19 8.64706L16.4 10.5294L14.32 9.11765L10.16 12.4118V12.7592V13.3529V12.8824M19 8.64706L13.3273 14.2941M8.08 3L6 12.8824H9.64L8.6 19L13.3273 14.2941M13.3273 14.2941L13.5437 11.7086M7.56 12.4118L10.5501 13.9151M13.5437 11.7086L10.68 13.8235M13.5437 11.7086L13.0955 12.7592M11.2 10.0588L10.68 13.8235M10.68 13.8235L13.0955 12.7592M12.3001 14.6239L12.24 14.7647L10.5501 13.9151M12.3001 14.6239L13.0955 12.7592M12.3001 14.6239L11.4859 14.2941M10.5501 13.9151L11.4859 14.2941M11.9406 13.9151L12.24 13.3529L11.4859 14.2941M9.64 12.4118L8.52819 11.7086L8.08 11.9412V12.4118H8.6L10.16 11.4706L10.68 11M10.16 9.58824V6.76471" stroke="#FFC300"/>
<path d="M10.5 5.5L9.5 9.5" stroke="#727272" stroke-width="1.5" stroke-linecap="round"/>
<path d="M15.5 2H8L5 13.5H9L7 22L20 8H14L15.5 2Z" stroke="#545454" stroke-width="1.5" stroke-linecap="round" stroke-linejoin="round"/>
</svg>
