<svg width="27" height="27" viewBox="0 0 27 27" fill="none" xmlns="http://www.w3.org/2000/svg">
<path d="M7.3125 22.5H5.0625C4.44118 22.5 3.9375 21.9963 3.9375 21.375V3.375C3.9375 2.75368 4.44118 2.25 5.0625 2.25H16.3125C16.9338 2.25 17.4375 2.75368 17.4375 3.375V5.625" stroke="#373737" stroke-width="1.5" stroke-linecap="round"/>
<path d="M7.3125 6.75L7.3125 23.625C7.3125 24.2463 7.81618 24.75 8.4375 24.75H21.9375C22.5588 24.75 23.0625 24.2463 23.0625 23.625V6.75C23.0625 6.12868 22.5588 5.625 21.9375 5.625H8.4375C7.81618 5.625 7.3125 6.12868 7.3125 6.75Z" stroke="#373737" stroke-width="1.5"/>
<path d="M15.1875 19.6875C17.6728 19.6875 19.6875 17.6728 19.6875 15.1875C19.6875 12.7022 17.6728 10.6875 15.1875 10.6875C12.7022 10.6875 10.6875 12.7022 10.6875 15.1875C10.6875 17.6728 12.7022 19.6875 15.1875 19.6875Z" stroke="#373737" stroke-width="1.5"/>
<path d="M19.6871 15.75C19.6871 15.75 17.9997 15.4688 16.8744 16.3125C15.7492 17.1563 15.4128 19.1827 15.7497 19.6875" stroke="#373737" stroke-width="1.5" stroke-linecap="round"/>
<path d="M13.5 15.1875C13.5 16.3125 12.375 17.4375 11.25 17.4375" stroke="#373737" stroke-width="1.5" stroke-linecap="round"/>
<path d="M17.4375 11.25C17.4375 11.25 17.4375 13.5 15.75 13.5" stroke="#373737" stroke-width="1.5" stroke-linecap="round"/>
</svg>
