<svg width="28" height="28" viewBox="0 0 26 26" fill="none" xmlns="http://www.w3.org/2000/svg">
<path d="M13 14.0835V20.5835" stroke="black" stroke-width="1.5" stroke-linecap="round" stroke-linejoin="round"/>
<path d="M13 3.25V14.0833" stroke="black" stroke-width="1.5" stroke-linecap="round" stroke-linejoin="round"/>
<path d="M13 2.1665V3.24984" stroke="black" stroke-width="1.5" stroke-linecap="round" stroke-linejoin="round"/>
<path d="M4.33398 21.6665H18.4173L21.6673 18.4165" stroke="black" stroke-width="1.5" stroke-linecap="round" stroke-linejoin="round"/>
<path d="M8.125 21.6665V23.8332" stroke="black" stroke-width="1.5" stroke-linecap="round" stroke-linejoin="round"/>
<path d="M17.334 21.6665V23.8332" stroke="black" stroke-width="1.5" stroke-linecap="round" stroke-linejoin="round"/>
<path d="M13 3.25C7.61524 3.25 3.25 7.60175 3.25 12.9699V14.0833C3.25 12.7413 4.34131 11.375 5.6875 11.375C7.0337 11.375 8.125 12.7413 8.125 14.0833C8.125 12.7413 9.2163 11.375 10.5625 11.375C11.9087 11.375 13 12.7413 13 14.0833C13 12.7413 14.0913 11.375 15.4375 11.375C16.7837 11.375 17.875 12.7413 17.875 14.0833C17.875 12.7413 18.9663 11.375 20.3125 11.375C21.6587 11.375 22.75 12.7413 22.75 14.0833V12.9699C22.75 7.60175 18.3848 3.25 13 3.25Z" stroke="black" stroke-width="1.5" stroke-linecap="round" stroke-linejoin="round"/>
<path d="M8.12462 14.0833C8.12462 14.0833 7.3119 11.1042 8.66639 8.12501C10.0209 5.14583 12.9996 3.25 12.9996 3.25" stroke="black" stroke-width="1.5" stroke-linecap="round" stroke-linejoin="round"/>
<path d="M17.875 14.0833C17.875 14.0833 18.146 11.6458 16.7917 8.12501C15.4374 4.60417 13 3.25 13 3.25" stroke="black" stroke-width="1.5" stroke-linecap="round" stroke-linejoin="round"/>
<path d="M13 13.5417V3.25" stroke="black" stroke-width="1.5" stroke-linecap="round" stroke-linejoin="round"/>
<path d="M15.4375 11.375C16.7837 11.375 17.875 12.7413 17.875 14.0833C17.875 12.7413 18.9663 11.375 20.3125 11.375" stroke="black" stroke-width="1.5" stroke-linecap="round" stroke-linejoin="round"/>
<path d="M15.4375 11.375C14.0913 11.375 13 12.7413 13 14.0833C13 12.7413 11.9087 11.375 10.5625 11.375" stroke="black" stroke-width="1.5" stroke-linecap="round" stroke-linejoin="round"/>
<path d="M5.6875 11.375C7.0337 11.375 8.125 12.7413 8.125 14.0833C8.125 12.7413 9.2163 11.375 10.5625 11.375" stroke="black" stroke-width="1.5" stroke-linecap="round" stroke-linejoin="round"/>
<path d="M8.52148 4.33333C9.86233 3.64106 11.3849 3.25 12.9991 3.25C14.6133 3.25 16.1359 3.64106 17.4767 4.33333" stroke="black" stroke-width="1.5" stroke-linecap="round" stroke-linejoin="round"/>
</svg>
