<svg width="28" height="28" viewBox="0 0 26 26" fill="none" xmlns="http://www.w3.org/2000/svg">
<path d="M12.4577 22.75H10.291H8.12435H4.87435C4.27604 22.75 3.79102 22.265 3.79102 21.6667V4.33333C3.79102 3.73502 4.27604 3.25 4.87435 3.25H20.041C20.6393 3.25 21.1243 3.73502 21.1243 4.33333V8.125V10.5625" stroke="#727272" stroke-width="1.5" stroke-linecap="round" stroke-linejoin="round"/>
<path d="M19.8441 14.625C21.1494 14.625 22.2077 15.6436 22.2077 16.9C22.2077 18.5356 20.6319 19.9333 19.8441 20.6917C19.3188 21.1972 18.6622 21.7028 17.8743 22.2083C17.0865 21.7028 16.4299 21.1972 15.9046 20.6917C15.1168 19.9333 13.541 18.5356 13.541 16.9C13.541 15.6436 14.5993 14.625 15.9046 14.625C16.7268 14.625 17.4509 15.029 17.8743 15.642C18.2978 15.029 19.0219 14.625 19.8441 14.625Z" stroke="#727272" stroke-width="1.5" stroke-linejoin="round"/>
<path d="M8.125 7.5835H16.7917" stroke="#727272" stroke-width="1.5" stroke-linecap="round"/>
</svg>
