<svg width="28" height="28" viewBox="0 0 24 24" fill="none" xmlns="http://www.w3.org/2000/svg">
<path d="M12 22C17.5229 22 22 17.5229 22 12C22 6.47715 17.5229 2 12 2C6.47715 2 2 6.47715 2 12C2 17.5229 6.47715 22 12 22Z" stroke="#727272" stroke-width="1.5"/>
<path d="M2 10.42C3.50742 9.70816 4.62233 9.60901 5.3447 10.1225C6.4283 10.8927 6.56415 14.0318 9.02875 12.5315C11.4934 11.0313 7.97335 10.42 8.7375 8.24671C9.50165 6.07346 12.0041 7.76161 12.2529 5.38111C12.4187 3.79407 10.5204 3.18682 6.5578 3.55936" stroke="#727272" stroke-width="1.5"/>
<path d="M18.0007 4C15.1435 6.4943 14.1456 8.00055 15.007 8.51865C16.299 9.29585 16.8473 8.20165 18.424 8.51865C20.0007 8.8357 19.6593 10.9728 18.83 10.9728C18.0007 10.9728 13.7056 10.4259 13.922 12.9325C14.1383 15.439 16.7217 15.8102 16.7217 17.2106C16.7217 18.1442 16.1501 19.573 15.007 21.4971" stroke="#727272" stroke-width="1.5" stroke-linecap="round"/>
<path d="M3.05273 16.463C3.50848 16.2642 3.85106 16.1185 4.08048 16.0258C6.00404 15.2487 7.43134 15.0655 8.36229 15.4763C10.0085 16.2027 9.37564 17.6698 9.89129 18.2103C10.4069 18.7508 11.6945 18.5936 11.6945 19.6218C11.6945 20.3073 11.4642 21.0816 11.0037 21.9448" stroke="#727272" stroke-width="1.5" stroke-linecap="round"/>
</svg>
